<svg xmlns="http://www.w3.org/2000/svg" width="800" height="800" fill="none" viewBox="0 0 24 24"><path fill="#000" fill-rule="evenodd" d="M6.46 6a4 4 0 0 0-3.96 4.566l1.02 7.141A5 5 0 0 0 8.47 22h7.061a5 5 0 0 0 4.95-4.293l1.02-7.141A4 4 0 0 0 17.541 6z" clip-rule="evenodd"/><path fill="#000" fill-rule="evenodd" d="M7 4.764A5 5 0 0 1 11.472 2h1.056A5 5 0 0 1 17 4.764l.894 1.789a1 1 0 1 1-1.788.894l-.895-1.789A3 3 0 0 0 12.528 4h-1.056A3 3 0 0 0 8.79 5.658l-.895 1.79a1 1 0 1 1-1.788-.895z" clip-rule="evenodd"/></svg>